<?xml version="1.0" encoding="UTF-8"?>
<svg width="327.61" height="76.773" version="1.1" viewBox="0 0 327.60992 76.772522" xml:space="preserve" xmlns="http://www.w3.org/2000/svg" xmlns:cc="http://creativecommons.org/ns#" xmlns:dc="http://purl.org/dc/elements/1.1/" xmlns:rdf="http://www.w3.org/1999/02/22-rdf-syntax-ns#"><metadata><rdf:RDF><cc:Work rdf:about=""><dc:format>image/svg+xml</dc:format><dc:type rdf:resource="http://purl.org/dc/dcmitype/StillImage"/><dc:title/></cc:Work></rdf:RDF></metadata><defs><clipPath id="a"><path d="m4 36c-2.209 0-4-1.791-4-4v-28c0-2.209 1.791-4 4-4h28c2.209 0 4 1.791 4 4v28c0 2.209-1.791 4-4 4h-28z"/></clipPath></defs><g transform="matrix(1.8982 0 0 -1.8982 0 63.219)"><g clip-path="url(#a)"><g transform="translate(32.114 17.264)"><path d="m0 0c1.587 0.451 1.587 1.147 1e-3 1.599l-0.559 0.153-0.556 0.164v-5e-3l-2.941 0.891 2.323 1.934h-0.013l0.493 0.322 0.497 0.359c1.291 1.023 1.008 1.687-0.629 1.498l-0.636-0.09-0.632-0.089h-2e-3l-2.979-0.339 1.77 3.18 0.309 0.558c0.802 1.44 0.281 1.963-1.158 1.162l-0.559-0.28-0.555-0.281h-2e-3l-2.626-1.489 0.34 2.947v3e-3l0.08 0.633 0.077 0.637c0.188 1.634-0.492 1.915-1.516 0.623l-0.394-0.499-2.257-2.85-0.819 2.881c-1e-3 1e-3 -1e-3 2e-3 -2e-3 4e-3l-0.349 1.225c-0.451 1.587-1.189 1.587-1.641 0l-0.174-0.613-0.174-0.612-0.821-2.885-1.861 2.35c-1e-3 0-1e-3 1e-3 -2e-3 1e-3l-0.395 0.499-0.397 0.502c-1.023 1.289-1.704 1.007-1.515-0.629l0.074-0.634 0.073-0.633v-1e-3l0.346-2.979-3.177 1.77-0.556 0.31c-1.442 0.803-1.964 0.281-1.161-1.161l0.31-0.556 1.77-3.177-2.979 0.346h-1e-3l-0.633 0.073-0.634 0.074c-1.636 0.189-1.918-0.492-0.629-1.515l0.502-0.397 0.499-0.395c0-1e-3 1e-3 -1e-3 1e-3 -2e-3l2.35-1.861-2.885-0.821-0.612-0.174-0.613-0.174c-1.587-0.452-1.587-1.19 0-1.642l1.225-0.348c2e-3 -1e-3 3e-3 -1e-3 4e-3 -2e-3l2.881-0.819-2.85-2.258-0.499-0.395c-1.292-1.024-1.011-1.705 0.623-1.517l0.637 0.08 0.633 0.08h2e-3l2.948 0.34-1.489-2.626v-2e-3l-0.281-0.555-0.296-0.559c-0.8-1.439-0.27-1.96 1.169-1.158l0.56 0.309 3.185 1.77-0.337-2.979v-2e-3l-0.08-0.631-0.077-0.635c-0.189-1.637 0.491-1.918 1.515-0.627l0.395 0.5 0.395 0.5 1.862 2.351 0.82-2.884 1e-3 -1e-3 0.174-0.613 0.174-0.613c0.452-1.586 1.106-1.586 1.557 1e-3l0.264 1.225v4e-3l0.905 2.881 1.905-2.351 0.416-0.5 0.408-0.5c1.022-1.29 1.709-1.01 1.521 0.625l-0.078 0.637-0.077 0.632v3e-3l-0.34 2.948 2.624-1.49h2e-3l0.557-0.28 0.557-0.295c1.441-0.803 1.963-0.272 1.16 1.167l-0.28 0.561-0.28 0.557v2e-3l-1.49 2.628 2.948-0.34h3e-3l0.632-0.08 0.637-0.077c1.635-0.188 1.915 0.492 0.625 1.515l-0.5 0.395-0.5 0.395-2.351 1.947 2.881 0.905h4e-3l1.225 0.264z" fill="#ff9e16"/></g><g transform="translate(27.63 17.999)"><path d="m0 0c0-5.318-4.311-9.629-9.63-9.629-5.318 0-9.629 4.311-9.629 9.629s4.311 9.629 9.629 9.629c5.319 0 9.63-4.311 9.63-9.629" fill="#ffe8b6"/></g><g transform="translate(38,6)"><path d="m-56.305 9.492s-9 13-13 13-13-13-13-13v-6h26v6z" fill="#5c913b"/></g></g></g><text x="66.428299" y="76.772522" fill="#ffb857" font-family="sans-serif" font-size="40px" font-weight="bold" letter-spacing="0px" stroke-width="1px" word-spacing="0px" style="line-height:125%" xml:space="preserve"><tspan x="66.428299" y="76.772522" fill="#ffb857" font-family="sans-serif" font-size="60px" font-weight="bold">КРЫМА</tspan><tspan x="66.428299" y="151.77252"/></text>
<text x="69.45697" y="26.741533" fill="#0023a0" font-family="sans-serif" font-size="40px" letter-spacing="0px" stroke-width="1px" word-spacing="0px" style="line-height:125%" xml:space="preserve"><tspan x="69.45697" y="26.741533" fill="#0023a0" font-family="sans-serif" font-size="17.5px" font-weight="bold">САНАТОРИИ</tspan></text>
</svg>
