<?xml version="1.0" encoding="UTF-8"?>
<svg width="58.103" height="58.103" version="1.1" viewBox="0 0 58.103275 58.102554" xml:space="preserve" xmlns="http://www.w3.org/2000/svg" xmlns:cc="http://creativecommons.org/ns#" xmlns:dc="http://purl.org/dc/elements/1.1/" xmlns:rdf="http://www.w3.org/1999/02/22-rdf-syntax-ns#"><metadata><rdf:RDF><cc:Work rdf:about=""><dc:format>image/svg+xml</dc:format><dc:type rdf:resource="http://purl.org/dc/dcmitype/StillImage"/><dc:title/></cc:Work></rdf:RDF></metadata><path d="m55.844 30.449c3.0124-0.85608 3.0124-2.1772 2e-3 -3.0352l-1.0611-0.29042-1.0554-0.3113v0.0095l-5.5826-1.6913 4.4095-3.6711h-0.0247l0.93581-0.61121 0.94339-0.68145c2.4506-1.9418 1.9134-3.2022-1.194-2.8435l-1.2072 0.17084-1.1996 0.16894h-4e-3l-5.6547 0.64348 3.3598-6.0362 0.58653-1.0592c1.5223-2.7334 0.53339-3.7261-2.1981-2.2057l-1.0611 0.53149-1.0535 0.53339h-4e-3l-4.9846 2.8264 0.64538-5.5939v-0.0057l0.15186-1.2015 0.14616-1.2091c0.35687-3.1016-0.9339-3.635-2.8776-1.1826l-0.74788 0.94719-4.2842 5.4098-1.5546-5.4687c-2e-3 -0.0019-2e-3 -0.0038-4e-3 -0.0076l-0.66247-2.3253c-0.85607-3.0124-2.2569-3.0124-3.1149 0l-0.33028 1.1636-0.33028 1.1617-1.5584 5.4762-3.5325-4.4607c-2e-3 0-2e-3 -0.0019-4e-3 -0.0019l-0.74977-0.94719-0.75358-0.95289c-1.9418-2.4468-3.2345-1.9115-2.8757 1.194l0.14047 1.2034 0.13856 1.2015v0.0019l0.65677 5.6547-6.0305-3.3598-1.0554-0.58844c-2.7372-1.5242-3.728-0.53339-2.2038 2.2038l0.58843 1.0554 3.3598 6.0305-5.6547-0.65677h-2e-3l-1.2015-0.13857-1.2034-0.14046c-3.1054-0.35876-3.6407 0.9339-1.194 2.8757l0.95288 0.75358 0.94719 0.74978c0 0.0019 2e-3 0.0019 2e-3 0.0038l4.4607 3.5325-5.4762 1.5584-1.1617 0.33028-1.1636 0.33028c-3.0124 0.85798-3.0124 2.2588 0 3.1168l2.3253 0.66057c4e-3 0.0019 6e-3 0.0019 8e-3 0.0038l5.4686 1.5546-5.4098 4.2861-0.94719 0.74978c-2.4524 1.9437-1.9191 3.2364 1.1826 2.8795l1.2091-0.15185 1.2015-0.15185h4e-3l5.5958-0.64538-2.8264 4.9846v0.0038l-0.53339 1.0535-0.56186 1.0611c-1.5186 2.7315-0.51251 3.7204 2.219 2.1981l1.063-0.58654 6.0457-3.3598-0.63969 5.6547v0.0038l-0.15185 1.1978-0.14616 1.2053c-0.35876 3.1073 0.932 3.6407 2.8757 1.1902l0.74978-0.94909 0.74978-0.94909 3.5344-4.4626 1.5565 5.4743 2e-3 0.0019 0.33028 1.1636 0.33028 1.1636c0.85798 3.0105 2.0994 3.0105 2.9555-0.0019l0.50112-2.3253v-0.0076l1.7178-5.4687 3.616 4.4626 0.78964 0.94909 0.77446 0.94909c1.9399 2.4487 3.244 1.9172 2.8871-1.1864l-0.14806-1.2091-0.14616-1.1996v-0.0057l-0.64538-5.5958 4.9808 2.8283h4e-3l1.0573 0.53149 1.0573 0.55996c2.7353 1.5242 3.7261 0.5163 2.2019-2.2152l-0.53149-1.0649-0.53149-1.0573v-0.0038l-2.8283-4.9884 5.5958 0.64538h6e-3l1.1996 0.15185 1.2091 0.14616c3.1035 0.35686 3.635-0.9339 1.1864-2.8757l-0.94909-0.74978-0.94909-0.74978-4.4626-3.6958 5.4686-1.7179h8e-3l2.3253-0.50112z" fill="#ff9e16"/><path d="m47.332 29.053c0 10.095-8.183 18.278-18.279 18.278-10.095 0-18.278-8.183-18.278-18.278s8.183-18.278 18.278-18.278c10.096 0 18.279 8.183 18.279 18.278" fill="#ffe8b6"/></svg>
