<svg width="58.103" height="58.103" xmlns="http://www.w3.org/2000/svg">
  <path d="M55.844 30.449c3.012-.856 3.012-2.177.002-3.035l-1.061-.29-1.055-.312v.01l-5.583-1.692 4.41-3.67h-.025l.936-.612.943-.681c2.45-1.942 1.913-3.203-1.194-2.844l-1.207.17-1.2.17h-.004l-5.655.643 3.36-6.036.587-1.06c1.522-2.733.533-3.725-2.198-2.205l-1.061.532-1.054.533h-.004l-4.985 2.826.646-5.593v-.006l.152-1.202.146-1.209c.357-3.101-.934-3.635-2.878-1.182l-.748.947-4.284 5.41-1.554-5.47c-.002-.001-.002-.003-.004-.007l-.663-2.325c-.856-3.012-2.257-3.012-3.115 0l-.33 1.164-.33 1.161-1.559 5.477L21.743 5.6l-.004-.002-.75-.947-.754-.953c-1.941-2.447-3.234-1.912-2.875 1.194l.14 1.203.139 1.202v.002l.656 5.654-6.03-3.36-1.055-.588c-2.738-1.524-3.728-.533-2.204 2.204l.588 1.055 3.36 6.03-5.655-.656h-.002L6.096 17.5l-1.204-.14c-3.105-.359-3.64.934-1.194 2.876l.953.753.947.75.002.004 4.461 3.532-5.476 1.559-1.162.33-1.163.33c-3.013.858-3.013 2.26 0 3.117l2.325.66.008.005 5.469 1.554-5.41 4.286-.947.75c-2.453 1.944-1.92 3.236 1.182 2.88l1.21-.152 1.2-.152h.005l5.596-.646-2.827 4.985v.004l-.533 1.053-.562 1.061c-1.519 2.732-.513 3.72 2.219 2.199l1.063-.587 6.046-3.36-.64 5.655v.004l-.152 1.197-.146 1.206c-.359 3.107.932 3.64 2.876 1.19l.75-.95.75-.948 3.534-4.463 1.556 5.474.002.002.33 1.164.33 1.164c.859 3.01 2.1 3.01 2.956-.002l.501-2.326v-.007l1.718-5.469 3.616 4.463.79.949.774.949c1.94 2.449 3.244 1.917 2.887-1.187l-.148-1.209-.146-1.2v-.005l-.645-5.596 4.98 2.829h.004l1.058.531 1.057.56c2.735 1.524 3.726.516 2.202-2.215l-.532-1.065-.531-1.057v-.004l-2.828-4.989 5.595.646h.006l1.2.152 1.21.146c3.103.357 3.634-.934 1.186-2.876l-.95-.75-.949-.75-4.462-3.695 5.468-1.718h.008l2.326-.501z" fill="#ff9e16"/>
  <path d="M47.332 29.053c0 10.095-8.183 18.278-18.279 18.278-10.095 0-18.278-8.183-18.278-18.278s8.183-18.278 18.278-18.278c10.096 0 18.279 8.183 18.279 18.278" fill="#ffe8b6"/>
</svg>
